<svg width="44" height="44" viewBox="0 0 44 44" fill="none" xmlns="http://www.w3.org/2000/svg">
<path d="M2.20106 2.20099C4.15374 0.248325 7.31953 0.248385 9.27213 2.20099L22 14.929L34.728 2.20099C36.6806 0.248385 39.8464 0.248315 41.799 2.20099C43.7517 4.15367 43.7516 7.3195 41.799 9.2721L29.0711 22L41.799 34.7279C43.7516 36.6805 43.7517 39.8463 41.799 41.799C39.8464 43.7516 36.6806 43.7516 34.728 41.7989L22 29.0711L9.27212 41.799C7.31952 43.7516 4.15374 43.7516 2.20106 41.7989C0.248386 39.8463 0.248446 36.6805 2.20105 34.7279L14.929 22L2.20106 9.2721C0.248446 7.31949 0.248376 4.15367 2.20106 2.20099V2.20099Z" fill="black"/>
</svg>
